<svg width="21" height="20" viewBox="0 0 21 20" fill="none" xmlns="http://www.w3.org/2000/svg">
<g id="Input / Visibility Off">
<path id="Vector" d="M10.5007 5.83333C12.8007 5.83333 14.6673 7.7 14.6673 10C14.6673 10.5417 14.559 11.05 14.3673 11.525L16.8007 13.9583C18.059 12.9083 19.0506 11.55 19.659 10C18.2173 6.34167 14.659 3.75 10.4923 3.75C9.32565 3.75 8.20898 3.95833 7.17565 4.33333L8.97565 6.13333C9.45065 5.94167 9.95898 5.83333 10.5007 5.83333ZM2.16732 3.55833L4.06732 5.45833L4.45065 5.84167C3.06732 6.91667 1.98398 8.35 1.33398 10C2.77565 13.6583 6.33398 16.25 10.5007 16.25C11.7923 16.25 13.0257 16 14.1507 15.55L14.5007 15.9L16.9423 18.3333L18.0007 17.275L3.22565 2.5L2.16732 3.55833ZM6.77565 8.16667L8.06732 9.45833C8.02565 9.63333 8.00065 9.81667 8.00065 10C8.00065 11.3833 9.11732 12.5 10.5007 12.5C10.684 12.5 10.8673 12.475 11.0423 12.4333L12.334 13.725C11.7757 14 11.159 14.1667 10.5007 14.1667C8.20065 14.1667 6.33398 12.3 6.33398 10C6.33398 9.34167 6.50065 8.725 6.77565 8.16667ZM10.3673 7.51667L12.9923 10.1417L13.009 10.0083C13.009 8.625 11.8923 7.50833 10.509 7.50833L10.3673 7.51667Z" fill="#000"/>
</g>
</svg>
