<svg width="14" height="14" viewBox="0 0 12 12" fill="none" xmlns="http://www.w3.org/2000/svg">
<path fill-rule="evenodd" clip-rule="evenodd" d="M7.27503 4.09139C7.27574 4.26011 7.34317 4.42171 7.46259 4.5409C7.58202 4.66009 7.74375 4.7272 7.91248 4.72759H10.463C10.6317 4.72701 10.7934 4.65984 10.9128 4.5407C11.0322 4.42155 11.0998 4.26007 11.1007 4.09139V1.54595C11.1003 1.37716 11.0329 1.21545 10.9134 1.09627C10.7939 0.977084 10.632 0.910156 10.4632 0.910156C10.2944 0.910156 10.1325 0.977084 10.013 1.09627C9.89345 1.21545 9.82607 1.37716 9.8256 1.54595V2.6407C9.05827 1.77256 8.01739 1.19262 6.87539 0.996928C5.73339 0.801241 4.55881 1.00156 3.54622 1.5647C2.53364 2.12784 1.74382 3.02 1.30761 4.0934C0.871395 5.16679 0.81497 6.357 1.14768 7.46684C1.48039 8.57669 2.18226 9.53957 3.13703 10.196C4.0918 10.8524 5.24216 11.1629 6.39755 11.0762C7.55294 10.9894 8.64402 10.5105 9.49003 9.71886C10.3361 8.92721 10.8862 7.87029 11.0494 6.7232C11.0613 6.63275 11.0536 6.54082 11.0271 6.45356C11.0005 6.3663 10.9555 6.28573 10.8953 6.21725C10.835 6.14878 10.7608 6.09397 10.6776 6.05651C10.5944 6.01905 10.5042 5.9998 10.413 6.00006C10.2603 6.00031 10.1129 6.05568 9.99776 6.15597C9.88265 6.25627 9.80762 6.39475 9.78647 6.54596C9.66548 7.41006 9.25321 8.20701 8.61782 8.80501C7.98244 9.40301 7.162 9.76627 6.29215 9.83471C5.4223 9.90315 4.55514 9.67268 3.83405 9.1814C3.11296 8.69013 2.58112 7.96747 2.32648 7.13292C2.07183 6.29836 2.10963 5.4019 2.43362 4.59174C2.75761 3.78158 3.34839 3.10626 4.10827 2.67742C4.86815 2.24859 5.75164 2.09193 6.61264 2.23335C7.47364 2.37477 8.26059 2.80579 8.84339 3.45516H7.91248C7.74372 3.45546 7.58194 3.52255 7.4625 3.64177C7.34306 3.76098 7.27566 3.92263 7.27503 4.09139Z" fill="#B31E72"/>
</svg>
