<svg width="20" height="20" viewBox="0 0 20 20" fill="none" xmlns="http://www.w3.org/2000/svg">
<path fill-rule="evenodd" clip-rule="evenodd" d="M13.624 11.9993L19.652 18.0284C20.116 18.4925 20.116 19.1881 19.653 19.6522C19.42 19.8837 19.131 20 18.841 20C18.551 20 18.26 19.8837 18.029 19.6522L12 13.6232C10.724 14.5503 9.217 15.072 7.536 15.072C3.362 15.072 0 11.7102 0 7.5366C0 3.3629 3.363 0 7.537 0C11.711 0 15.073 3.3618 15.073 7.5354C15.073 9.2169 14.551 10.782 13.624 11.9993ZM2.32 7.5366C2.32 10.4353 4.638 12.7537 7.537 12.7537C10.435 12.7537 12.754 10.4342 12.754 7.5366C12.754 4.6378 10.436 2.3195 7.537 2.3195C4.638 2.3195 2.32 4.6378 2.32 7.5366Z" fill="#DEE3ED"/>
</svg>
